<mxfile host="app.diagrams.net" modified="2021-05-17T08:11:54.012Z" agent="5.0 (Windows NT 10.0; Win64; x64) AppleWebKit/537.36 (KHTML, like Gecko) Chrome/90.0.4430.212 Safari/537.36" etag="sjD5qHK6Xu0J9BSx2LWz" version="14.6.13" type="github">
  <diagram id="C5RBs43oDa-KdzZeNtuy" name="Page-1">
    <mxGraphModel dx="1422" dy="762" grid="1" gridSize="10" guides="1" tooltips="1" connect="1" arrows="1" fold="1" page="1" pageScale="1" pageWidth="1169" pageHeight="827" math="0" shadow="0">
      <root>
        <mxCell id="WIyWlLk6GJQsqaUBKTNV-0" />
        <mxCell id="WIyWlLk6GJQsqaUBKTNV-1" parent="WIyWlLk6GJQsqaUBKTNV-0" />
        <mxCell id="Jq5uu5sEXMixFGqUbxDx-4" style="edgeStyle=orthogonalEdgeStyle;rounded=0;orthogonalLoop=1;jettySize=auto;html=1;entryX=0;entryY=0.5;entryDx=0;entryDy=0;" edge="1" parent="WIyWlLk6GJQsqaUBKTNV-1" source="Jq5uu5sEXMixFGqUbxDx-2" target="Jq5uu5sEXMixFGqUbxDx-3">
          <mxGeometry relative="1" as="geometry" />
        </mxCell>
        <mxCell id="Jq5uu5sEXMixFGqUbxDx-2" value="지역 선정&lt;br&gt;( 시, 구, 군 단위)" style="rounded=1;whiteSpace=wrap;html=1;" vertex="1" parent="WIyWlLk6GJQsqaUBKTNV-1">
          <mxGeometry x="100" y="60" width="120" height="60" as="geometry" />
        </mxCell>
        <mxCell id="Jq5uu5sEXMixFGqUbxDx-6" style="edgeStyle=orthogonalEdgeStyle;rounded=0;orthogonalLoop=1;jettySize=auto;html=1;" edge="1" parent="WIyWlLk6GJQsqaUBKTNV-1" source="Jq5uu5sEXMixFGqUbxDx-3" target="Jq5uu5sEXMixFGqUbxDx-5">
          <mxGeometry relative="1" as="geometry" />
        </mxCell>
        <mxCell id="Jq5uu5sEXMixFGqUbxDx-3" value="선정한 지역 Modeling&lt;br&gt;&amp;nbsp;&amp;amp; 지역 Data 수집" style="rounded=1;whiteSpace=wrap;html=1;" vertex="1" parent="WIyWlLk6GJQsqaUBKTNV-1">
          <mxGeometry x="290" y="60" width="120" height="60" as="geometry" />
        </mxCell>
        <mxCell id="Jq5uu5sEXMixFGqUbxDx-7" style="edgeStyle=orthogonalEdgeStyle;rounded=0;orthogonalLoop=1;jettySize=auto;html=1;" edge="1" parent="WIyWlLk6GJQsqaUBKTNV-1" source="Jq5uu5sEXMixFGqUbxDx-5">
          <mxGeometry relative="1" as="geometry">
            <mxPoint x="530" y="180" as="targetPoint" />
          </mxGeometry>
        </mxCell>
        <mxCell id="Jq5uu5sEXMixFGqUbxDx-5" value="지역 Data" style="rounded=1;whiteSpace=wrap;html=1;" vertex="1" parent="WIyWlLk6GJQsqaUBKTNV-1">
          <mxGeometry x="470" y="60" width="120" height="60" as="geometry" />
        </mxCell>
        <mxCell id="Jq5uu5sEXMixFGqUbxDx-10" style="edgeStyle=orthogonalEdgeStyle;rounded=0;orthogonalLoop=1;jettySize=auto;html=1;entryX=0;entryY=0.5;entryDx=0;entryDy=0;" edge="1" parent="WIyWlLk6GJQsqaUBKTNV-1" source="Jq5uu5sEXMixFGqUbxDx-8" target="Jq5uu5sEXMixFGqUbxDx-9">
          <mxGeometry relative="1" as="geometry" />
        </mxCell>
        <mxCell id="Jq5uu5sEXMixFGqUbxDx-8" value="json 파일 통합&lt;br&gt;(Age, Basic, Info, Floor, Price)" style="rounded=0;whiteSpace=wrap;html=1;" vertex="1" parent="WIyWlLk6GJQsqaUBKTNV-1">
          <mxGeometry x="470" y="180" width="120" height="60" as="geometry" />
        </mxCell>
        <mxCell id="Jq5uu5sEXMixFGqUbxDx-9" value="IPLUS 폴더 내 &lt;br&gt;json폴더로 이동" style="rounded=0;whiteSpace=wrap;html=1;" vertex="1" parent="WIyWlLk6GJQsqaUBKTNV-1">
          <mxGeometry x="690" y="180" width="120" height="60" as="geometry" />
        </mxCell>
        <mxCell id="Jq5uu5sEXMixFGqUbxDx-12" style="edgeStyle=orthogonalEdgeStyle;rounded=0;orthogonalLoop=1;jettySize=auto;html=1;" edge="1" parent="WIyWlLk6GJQsqaUBKTNV-1" source="Jq5uu5sEXMixFGqUbxDx-11">
          <mxGeometry relative="1" as="geometry">
            <mxPoint x="280" y="380" as="targetPoint" />
          </mxGeometry>
        </mxCell>
        <mxCell id="Jq5uu5sEXMixFGqUbxDx-11" value="붙여넣기" style="rounded=0;whiteSpace=wrap;html=1;" vertex="1" parent="WIyWlLk6GJQsqaUBKTNV-1">
          <mxGeometry x="110" y="360" width="100" height="40" as="geometry" />
        </mxCell>
        <mxCell id="Jq5uu5sEXMixFGqUbxDx-15" style="edgeStyle=orthogonalEdgeStyle;rounded=0;orthogonalLoop=1;jettySize=auto;html=1;" edge="1" parent="WIyWlLk6GJQsqaUBKTNV-1" source="Jq5uu5sEXMixFGqUbxDx-14">
          <mxGeometry relative="1" as="geometry">
            <mxPoint x="440" y="380" as="targetPoint" />
          </mxGeometry>
        </mxCell>
        <mxCell id="Jq5uu5sEXMixFGqUbxDx-14" value="도로명 주소" style="shape=parallelogram;perimeter=parallelogramPerimeter;whiteSpace=wrap;html=1;fixedSize=1;" vertex="1" parent="WIyWlLk6GJQsqaUBKTNV-1">
          <mxGeometry x="280" y="360" width="120" height="40" as="geometry" />
        </mxCell>
        <mxCell id="Jq5uu5sEXMixFGqUbxDx-17" value="Yes" style="edgeStyle=orthogonalEdgeStyle;rounded=0;orthogonalLoop=1;jettySize=auto;html=1;" edge="1" parent="WIyWlLk6GJQsqaUBKTNV-1" source="Jq5uu5sEXMixFGqUbxDx-16">
          <mxGeometry x="-0.1429" y="10" relative="1" as="geometry">
            <mxPoint x="640" y="380" as="targetPoint" />
            <mxPoint as="offset" />
          </mxGeometry>
        </mxCell>
        <mxCell id="Jq5uu5sEXMixFGqUbxDx-18" value="No" style="edgeStyle=orthogonalEdgeStyle;rounded=0;orthogonalLoop=1;jettySize=auto;html=1;" edge="1" parent="WIyWlLk6GJQsqaUBKTNV-1" source="Jq5uu5sEXMixFGqUbxDx-16">
          <mxGeometry x="-0.2" y="15" relative="1" as="geometry">
            <mxPoint x="505" y="460" as="targetPoint" />
            <mxPoint as="offset" />
          </mxGeometry>
        </mxCell>
        <mxCell id="Jq5uu5sEXMixFGqUbxDx-16" value="IsEmpty?" style="rhombus;whiteSpace=wrap;html=1;" vertex="1" parent="WIyWlLk6GJQsqaUBKTNV-1">
          <mxGeometry x="440" y="350" width="130" height="60" as="geometry" />
        </mxCell>
        <mxCell id="Jq5uu5sEXMixFGqUbxDx-23" style="edgeStyle=orthogonalEdgeStyle;rounded=0;orthogonalLoop=1;jettySize=auto;html=1;entryX=0.5;entryY=0;entryDx=0;entryDy=0;" edge="1" parent="WIyWlLk6GJQsqaUBKTNV-1" source="Jq5uu5sEXMixFGqUbxDx-19" target="Jq5uu5sEXMixFGqUbxDx-21">
          <mxGeometry relative="1" as="geometry" />
        </mxCell>
        <mxCell id="Jq5uu5sEXMixFGqUbxDx-19" value="address =&amp;nbsp;&lt;br&gt;Infraworks.txt" style="rounded=0;whiteSpace=wrap;html=1;" vertex="1" parent="WIyWlLk6GJQsqaUBKTNV-1">
          <mxGeometry x="650" y="360" width="90" height="40" as="geometry" />
        </mxCell>
        <mxCell id="Jq5uu5sEXMixFGqUbxDx-22" style="edgeStyle=orthogonalEdgeStyle;rounded=0;orthogonalLoop=1;jettySize=auto;html=1;" edge="1" parent="WIyWlLk6GJQsqaUBKTNV-1" source="Jq5uu5sEXMixFGqUbxDx-20">
          <mxGeometry relative="1" as="geometry">
            <mxPoint x="640" y="470" as="targetPoint" />
          </mxGeometry>
        </mxCell>
        <mxCell id="Jq5uu5sEXMixFGqUbxDx-20" value="address =&amp;nbsp;&lt;br&gt;tb_address" style="rounded=0;whiteSpace=wrap;html=1;" vertex="1" parent="WIyWlLk6GJQsqaUBKTNV-1">
          <mxGeometry x="460" y="450" width="90" height="40" as="geometry" />
        </mxCell>
        <mxCell id="Jq5uu5sEXMixFGqUbxDx-24" value="False" style="edgeStyle=orthogonalEdgeStyle;rounded=0;orthogonalLoop=1;jettySize=auto;html=1;" edge="1" parent="WIyWlLk6GJQsqaUBKTNV-1" source="Jq5uu5sEXMixFGqUbxDx-21">
          <mxGeometry x="-0.2" y="25" relative="1" as="geometry">
            <mxPoint x="695" y="550" as="targetPoint" />
            <mxPoint as="offset" />
          </mxGeometry>
        </mxCell>
        <mxCell id="Jq5uu5sEXMixFGqUbxDx-25" value="True" style="edgeStyle=orthogonalEdgeStyle;rounded=0;orthogonalLoop=1;jettySize=auto;html=1;" edge="1" parent="WIyWlLk6GJQsqaUBKTNV-1" source="Jq5uu5sEXMixFGqUbxDx-21">
          <mxGeometry x="0.04" y="20" relative="1" as="geometry">
            <mxPoint x="810" y="470" as="targetPoint" />
            <mxPoint as="offset" />
          </mxGeometry>
        </mxCell>
        <mxCell id="Jq5uu5sEXMixFGqUbxDx-21" value="Get&lt;br&gt;code &amp;amp; pnu" style="rhombus;whiteSpace=wrap;html=1;" vertex="1" parent="WIyWlLk6GJQsqaUBKTNV-1">
          <mxGeometry x="642.5" y="440" width="105" height="60" as="geometry" />
        </mxCell>
        <mxCell id="Jq5uu5sEXMixFGqUbxDx-26" value="사이트 에러" style="rounded=0;whiteSpace=wrap;html=1;" vertex="1" parent="WIyWlLk6GJQsqaUBKTNV-1">
          <mxGeometry x="635" y="550" width="120" height="40" as="geometry" />
        </mxCell>
        <mxCell id="Jq5uu5sEXMixFGqUbxDx-28" value="건축물 정보 출력" style="shape=document;whiteSpace=wrap;html=1;boundedLbl=1;" vertex="1" parent="WIyWlLk6GJQsqaUBKTNV-1">
          <mxGeometry x="810" y="450" width="120" height="50" as="geometry" />
        </mxCell>
        <mxCell id="Jq5uu5sEXMixFGqUbxDx-29" value="Datas" style="swimlane;fontStyle=0;childLayout=stackLayout;horizontal=1;startSize=26;horizontalStack=0;resizeParent=1;resizeParentMax=0;resizeLast=0;collapsible=1;marginBottom=0;" vertex="1" parent="WIyWlLk6GJQsqaUBKTNV-1">
          <mxGeometry x="660" y="10" width="90" height="156" as="geometry" />
        </mxCell>
        <mxCell id="Jq5uu5sEXMixFGqUbxDx-30" value="get_Age" style="text;strokeColor=none;fillColor=none;align=left;verticalAlign=top;spacingLeft=4;spacingRight=4;overflow=hidden;rotatable=0;points=[[0,0.5],[1,0.5]];portConstraint=eastwest;" vertex="1" parent="Jq5uu5sEXMixFGqUbxDx-29">
          <mxGeometry y="26" width="90" height="26" as="geometry" />
        </mxCell>
        <mxCell id="Jq5uu5sEXMixFGqUbxDx-31" value="get_Basic" style="text;strokeColor=none;fillColor=none;align=left;verticalAlign=top;spacingLeft=4;spacingRight=4;overflow=hidden;rotatable=0;points=[[0,0.5],[1,0.5]];portConstraint=eastwest;" vertex="1" parent="Jq5uu5sEXMixFGqUbxDx-29">
          <mxGeometry y="52" width="90" height="26" as="geometry" />
        </mxCell>
        <mxCell id="Jq5uu5sEXMixFGqUbxDx-33" value="get_Info" style="text;strokeColor=none;fillColor=none;align=left;verticalAlign=top;spacingLeft=4;spacingRight=4;overflow=hidden;rotatable=0;points=[[0,0.5],[1,0.5]];portConstraint=eastwest;" vertex="1" parent="Jq5uu5sEXMixFGqUbxDx-29">
          <mxGeometry y="78" width="90" height="26" as="geometry" />
        </mxCell>
        <mxCell id="Jq5uu5sEXMixFGqUbxDx-34" value="get_Floor" style="text;strokeColor=none;fillColor=none;align=left;verticalAlign=top;spacingLeft=4;spacingRight=4;overflow=hidden;rotatable=0;points=[[0,0.5],[1,0.5]];portConstraint=eastwest;" vertex="1" parent="Jq5uu5sEXMixFGqUbxDx-29">
          <mxGeometry y="104" width="90" height="26" as="geometry" />
        </mxCell>
        <mxCell id="Jq5uu5sEXMixFGqUbxDx-32" value="get_Price" style="text;strokeColor=none;fillColor=none;align=left;verticalAlign=top;spacingLeft=4;spacingRight=4;overflow=hidden;rotatable=0;points=[[0,0.5],[1,0.5]];portConstraint=eastwest;" vertex="1" parent="Jq5uu5sEXMixFGqUbxDx-29">
          <mxGeometry y="130" width="90" height="26" as="geometry" />
        </mxCell>
        <mxCell id="Jq5uu5sEXMixFGqUbxDx-35" value="" style="endArrow=none;html=1;exitX=1;exitY=0.5;exitDx=0;exitDy=0;" edge="1" parent="WIyWlLk6GJQsqaUBKTNV-1" source="Jq5uu5sEXMixFGqUbxDx-5" target="Jq5uu5sEXMixFGqUbxDx-29">
          <mxGeometry width="50" height="50" relative="1" as="geometry">
            <mxPoint x="550" y="410" as="sourcePoint" />
            <mxPoint x="600" y="360" as="targetPoint" />
          </mxGeometry>
        </mxCell>
      </root>
    </mxGraphModel>
  </diagram>
</mxfile>
